<?xml version="1.0" encoding="utf-8"?>
<!-- Generator: Adobe Illustrator 27.3.1, SVG Export Plug-In . SVG Version: 6.00 Build 0)  -->
<svg version="1.1" id="Layer_1" xmlns="http://www.w3.org/2000/svg" xmlns:xlink="http://www.w3.org/1999/xlink" x="0px" y="0px"
	 viewBox="0 0 32 32" style="enable-background:new 0 0 32 32;" xml:space="preserve">
<style type="text/css">
	.st0{fill-rule:evenodd;clip-rule:evenodd;}
	.st1{opacity:0.5;}
</style>
<path d="M22.7,16c0,3.7-3,6.7-6.7,6.7s-6.7-3-6.7-6.7s3-6.7,6.7-6.7S22.7,12.3,22.7,16z"/>
<path class="st0" d="M16,1.7c0.6,0,1,0.4,1,1v2.7c0,0.6-0.4,1-1,1s-1-0.4-1-1V2.7C15,2.1,15.4,1.7,16,1.7z M1.7,16c0-0.6,0.4-1,1-1
	h2.7c0.6,0,1,0.4,1,1s-0.4,1-1,1H2.7C2.1,17,1.7,16.6,1.7,16z M25.7,16c0-0.6,0.4-1,1-1h2.7c0.6,0,1,0.4,1,1s-0.4,1-1,1h-2.7
	C26.1,17,25.7,16.6,25.7,16z M16,25.7c0.6,0,1,0.4,1,1v2.7c0,0.6-0.4,1-1,1s-1-0.4-1-1v-2.7C15,26.1,15.4,25.7,16,25.7z"/>
<g class="st1">
	<path d="M4.9,5c0.4-0.4,1-0.4,1.4-0.1l3,2.7c0.4,0.4,0.4,1,0,1.4C9,9.4,8.3,9.4,7.9,9.1L5,6.4C4.5,6,4.5,5.4,4.9,5z"/>
	<path d="M27.1,5c0.4,0.4,0.3,1-0.1,1.4l-3,2.7c-0.4,0.4-1,0.3-1.4-0.1c-0.4-0.4-0.3-1,0.1-1.4l3-2.7C26.1,4.5,26.7,4.5,27.1,5z"/>
	<path d="M22.7,22.7c0.4-0.4,1-0.4,1.4,0l3,3c0.4,0.4,0.4,1,0,1.4s-1,0.4-1.4,0l-3-3C22.3,23.7,22.3,23.1,22.7,22.7z"/>
	<path d="M9.3,22.7c0.4,0.4,0.4,1,0,1.4l-3,3c-0.4,0.4-1,0.4-1.4,0s-0.4-1,0-1.4l3-3C8.3,22.3,8.9,22.3,9.3,22.7z"/>
</g>
</svg>
