<svg width="24" height="24" viewBox="0 0 24 24" fill="none" xmlns="http://www.w3.org/2000/svg">
<path fill-rule="evenodd" clip-rule="evenodd" d="M2.97631 5.00421C2 6.00841 2 7.62465 2 10.8571V13.1429C2 16.3753 2 17.9915 2.97631 18.9958C3.95262 20 5.52397 20 8.66667 20H15.3333C18.476 20 20.0473 20 21.0237 18.9958C22 17.9915 22 16.3753 22 13.1429V10.8571C22 7.62465 22 6.00841 21.0237 5.00421C20.0473 4 18.476 4 15.3333 4H8.66667C5.52397 4 3.95262 4 2.97631 5.00421ZM5.94967 7.62051C5.43908 7.2704 4.74922 7.41231 4.40883 7.93749C4.06844 8.46266 4.20641 9.17223 4.717 9.52234L10.7673 13.6711C11.5138 14.183 12.4862 14.183 13.2327 13.6711L19.283 9.52234C19.7936 9.17223 19.9316 8.46266 19.5912 7.93749C19.2508 7.41231 18.5609 7.2704 18.0503 7.62051L12 11.7694L5.94967 7.62051Z" fill="#101010"/>
</svg>
