<svg width="24" height="24" viewBox="0 0 24 24" fill="none" xmlns="http://www.w3.org/2000/svg">
<g clip-path="url(#clip0_455_456)">
<path d="M11.9997 7.47272C13.7094 7.47272 15.1003 6.08179 15.1003 4.37217C15.1003 2.66254 13.7093 1.27162 11.9997 1.27162C10.29 1.27162 8.89917 2.66254 8.89917 4.37217C8.89917 6.08179 10.29 7.47272 11.9997 7.47272Z" fill="#101010"/>
<path d="M6.99967 14.9407H17C17.4134 14.9407 17.7485 14.6056 17.7485 14.1923C17.7485 11.0225 15.1697 8.44368 11.9999 8.44368C8.8301 8.44368 6.25122 11.0225 6.25122 14.1923C6.25122 14.6056 6.58633 14.9407 6.99967 14.9407Z" fill="#101010"/>
<path d="M15.0205 17.8137L13.3971 17.5777L12.6711 16.1068C12.397 15.5512 11.6028 15.5516 11.3288 16.1068L10.6028 17.5777L8.97939 17.8137C8.36641 17.9027 8.1213 18.6582 8.56459 19.0903L9.73924 20.2353L9.46192 21.8521C9.3572 22.4626 9.99991 22.9291 10.5479 22.6411L11.9999 21.8778L13.4519 22.6411C13.9954 22.9268 14.6433 22.4672 14.5378 21.8521L14.2605 20.2353L15.4352 19.0903C15.8788 18.6578 15.6331 17.9027 15.0205 17.8137Z" fill="#101010"/>
<path d="M6.68201 17.8137L5.05863 17.5778L4.33263 16.1068C4.05851 15.5513 3.2643 15.5516 2.99032 16.1068L2.26437 17.5778L0.640992 17.8137C0.0280075 17.9027 -0.217055 18.6582 0.226195 19.0903L1.40084 20.2353L1.12352 21.8521C1.0188 22.4626 1.66151 22.9291 2.20948 22.6411L3.66148 21.8777L5.11348 22.6411C5.65699 22.9268 6.30495 22.4672 6.19943 21.8521L5.92212 20.2353L7.0968 19.0903C7.54038 18.6578 7.29462 17.9027 6.68201 17.8137Z" fill="#101010"/>
<path d="M23.359 17.8137L21.7356 17.5777L21.0097 16.1068C20.7848 15.6511 20.2886 15.6895 20.3385 15.6895C20.0537 15.6895 19.7935 15.8513 19.6674 16.1068L18.9414 17.5777L17.318 17.8137C16.705 17.9027 16.4599 18.6582 16.9032 19.0903L18.0779 20.2353L17.8006 21.8521C17.6959 22.4626 18.3386 22.9291 18.8866 22.6411L20.3386 21.8777L21.7906 22.6411C22.3341 22.9268 22.982 22.4672 22.8765 21.8521L22.5992 20.2353L23.7739 19.0903C24.2173 18.6579 23.9717 17.9027 23.359 17.8137Z" fill="#101010"/>
</g>
<defs>
<clipPath id="clip0_455_456">
<rect width="24" height="24" fill="white"/>
</clipPath>
</defs>
</svg>
