<svg width="30" height="30" viewBox="0 0 30 30" fill="none" xmlns="http://www.w3.org/2000/svg">
<g clip-path="url(#clip0_371_996)">
<path d="M11.3875 19.1368H6.01902C5.83001 19.1411 5.64491 19.0826 5.49274 18.9704C5.34056 18.8582 5.22991 18.6987 5.17813 18.5168C5.14759 18.3949 5.14521 18.2676 5.17118 18.1447C5.19715 18.0217 5.25078 17.9063 5.32801 17.8071C5.40524 17.7079 5.50404 17.6277 5.61691 17.5724C5.72978 17.5171 5.85376 17.4882 5.97945 17.488H11.3479C11.5369 17.4837 11.722 17.5422 11.8742 17.6544C12.0264 17.7666 12.137 17.9261 12.1888 18.1079C12.2194 18.2299 12.2217 18.3571 12.1958 18.4801C12.1698 18.6031 12.1162 18.7185 12.0389 18.8177C11.9617 18.9168 11.8629 18.9971 11.75 19.0524C11.6372 19.1077 11.5132 19.1365 11.3875 19.1368ZM16.934 12.8714H6.01902C5.83001 12.8757 5.64491 12.8172 5.49274 12.705C5.34056 12.5928 5.22991 12.4333 5.17813 12.2514C5.14759 12.1295 5.14521 12.0022 5.17118 11.8793C5.19715 11.7563 5.25078 11.6408 5.32801 11.5417C5.40524 11.4425 5.50404 11.3623 5.61691 11.307C5.72978 11.2517 5.85376 11.2228 5.97945 11.2226H16.8978C17.0865 11.2179 17.2714 11.2763 17.4231 11.3886C17.5748 11.5009 17.6847 11.6607 17.7354 11.8425C17.7666 11.9645 17.7695 12.092 17.7438 12.2152C17.7181 12.3385 17.6645 12.4542 17.5871 12.5535C17.5098 12.6529 17.4107 12.7332 17.2975 12.7883C17.1843 12.8433 17.0599 12.8718 16.934 12.8714ZM16.9604 7.26547H6.01902C5.83001 7.26978 5.64491 7.21125 5.49274 7.09906C5.34056 6.98687 5.22991 6.82736 5.17813 6.64552C5.14759 6.52361 5.14521 6.39633 5.17118 6.27336C5.19715 6.15038 5.25078 6.03494 5.32801 5.93578C5.40524 5.83662 5.50404 5.75635 5.61691 5.70106C5.72978 5.64577 5.85376 5.61691 5.97945 5.61668H16.9208C17.1099 5.61237 17.295 5.6709 17.4471 5.78309C17.5993 5.89528 17.71 6.05479 17.7617 6.23662C17.7923 6.35854 17.7947 6.48581 17.7687 6.60879C17.7427 6.73176 17.6891 6.84721 17.6119 6.94637C17.5346 7.04553 17.4358 7.1258 17.323 7.18109C17.2101 7.23637 17.0861 7.26523 16.9604 7.26547ZM24.0832 22.4344H21.0461C20.857 22.4393 20.6716 22.3809 20.5193 22.2687C20.367 22.1564 20.2565 21.9966 20.2052 21.8144C20.174 21.6925 20.1711 21.565 20.1968 21.4417C20.2225 21.3185 20.2761 21.2027 20.3535 21.1034C20.4308 21.0041 20.5299 20.9238 20.6431 20.8687C20.7563 20.8136 20.8807 20.7852 21.0066 20.7856H24.0436C24.2326 20.7813 24.4177 20.8398 24.5699 20.952C24.7221 21.0642 24.8327 21.2237 24.8845 21.4055C24.9151 21.5274 24.9174 21.6547 24.8915 21.7777C24.8655 21.9007 24.8119 22.0161 24.7346 22.1153C24.6574 22.2144 24.5586 22.2947 24.4457 22.35C24.3329 22.4053 24.2089 22.4341 24.0832 22.4344Z" fill="#0D99FF"/>
<path d="M20.1261 21.4615V18.4772C20.1208 18.2883 20.179 18.1031 20.2914 17.9513C20.4038 17.7994 20.5639 17.6897 20.746 17.6396C20.8664 17.6087 20.9921 17.6055 21.1139 17.6301C21.2357 17.6547 21.3504 17.7065 21.4493 17.7817C21.5482 17.8568 21.6289 17.9534 21.6853 18.0641C21.7417 18.1748 21.7723 18.2969 21.7749 18.4211V21.501C21.7748 21.6267 21.746 21.7506 21.6906 21.8634C21.6353 21.9762 21.555 22.0748 21.4557 22.1518C21.3565 22.2288 21.2409 22.2821 21.1179 22.3076C20.9949 22.3331 20.8677 22.3302 20.746 22.2991C20.5639 22.249 20.4038 22.1392 20.2914 21.9873C20.179 21.8355 20.1208 21.6503 20.1261 21.4615Z" fill="#0D99FF"/>
<path d="M22.1046 13.7979V3.49627C22.102 2.83502 21.8381 2.2016 21.3705 1.73402C20.903 1.26644 20.2695 1.00261 19.6083 1H3.49627C2.83502 1.00261 2.2016 1.26644 1.73402 1.73402C1.26644 2.2016 1.00261 2.83502 1 3.49627V21.5868C1.00261 22.2481 1.26644 22.8815 1.73402 23.3491C2.2016 23.8167 2.83502 24.0805 3.49627 24.0831H14.4871C15.0722 25.422 16.034 26.5619 17.2553 27.364C18.4766 28.1661 19.9048 28.5958 21.3659 28.6008C23.2827 28.6217 25.1331 27.8996 26.5291 26.5859C27.9251 25.2723 28.7582 23.4691 28.8537 21.5546C28.9493 19.6401 28.2998 17.7629 27.0415 16.3168C25.7832 14.8707 24.0139 13.968 22.1046 13.7979ZM2.64879 21.5868V3.49627C2.64879 3.27151 2.73808 3.05595 2.89701 2.89701C3.05595 2.73808 3.27151 2.64879 3.49627 2.64879H19.6083C19.8331 2.64879 20.0486 2.73808 20.2075 2.89701C20.3665 3.05595 20.4558 3.27151 20.4558 3.49627V13.821C18.6525 14.0366 16.9903 14.9037 15.7817 16.2592C14.5731 17.6147 13.9016 19.3652 13.8936 21.1812C13.8941 21.5532 13.9217 21.9246 13.976 22.2925C13.976 22.342 13.9925 22.3882 14.0024 22.4343H3.49627C3.27151 22.4343 3.05595 22.345 2.89701 22.1861C2.73808 22.0272 2.64879 21.8116 2.64879 21.5868ZM21.2076 26.952C20.1996 26.9468 19.2103 26.6796 18.3368 26.1766C17.4633 25.6737 16.7355 24.9522 16.225 24.0831C15.9176 23.5727 15.6949 23.0159 15.5654 22.4343C15.5358 22.309 15.5127 22.1804 15.4929 22.0518C15.4513 21.7635 15.4304 21.4725 15.4302 21.1812C15.433 19.8093 15.9233 18.483 16.8137 17.4391C17.7041 16.3953 18.9365 15.702 20.2909 15.483C20.8365 15.3961 21.3916 15.3872 21.9397 15.4566C23.3956 15.6419 24.7262 16.3749 25.6607 17.5065C26.5953 18.6382 27.0636 20.0833 26.9703 21.548C26.877 23.0127 26.2292 24.3868 25.1587 25.3907C24.0881 26.3946 22.6753 26.9529 21.2076 26.952Z" fill="#0D99FF"/>
</g>
<defs>
<clipPath id="clip0_371_996">
<rect width="30" height="30" fill="white"/>
</clipPath>
</defs>
</svg>
