<svg width="24" height="24" viewBox="0 0 24 24" fill="none" xmlns="http://www.w3.org/2000/svg">
<g clip-path="url(#clip0_455_451)">
<path d="M21.3246 8.01459H14.2701L14.2765 6.92093C14.5124 6.03705 15.0095 5.26292 15.716 4.68L17.697 3.04547C17.8113 2.95116 17.854 2.79527 17.8039 2.6559C17.7537 2.51654 17.6227 2.42194 17.4732 2.42395L2.74556 2.44734C1.5799 2.44734 0.631592 3.39569 0.631592 4.56131V13.8305C0.631592 14.9961 1.5799 15.9445 2.74551 15.9445H9.94036C9.91576 17.2251 9.33746 18.4204 8.34443 19.2349L6.32717 20.8895C6.21255 20.9836 6.16937 21.1395 6.21929 21.279C6.26921 21.4185 6.40146 21.5117 6.54967 21.5117H21.3246C22.4902 21.5117 23.4386 20.5634 23.4386 19.3978V10.1286C23.4386 8.96295 22.4903 8.01459 21.3246 8.01459ZM4.19482 13.0774C4.15342 13.0934 4.1108 13.1009 4.06893 13.1009C3.92797 13.1009 3.79501 13.0153 3.74139 12.8759C3.67183 12.695 3.76202 12.492 3.94294 12.4225C5.20595 11.9367 6.17414 11.3098 6.91529 10.6511C6.19674 9.93179 5.7675 9.2953 5.58995 9.00678C5.48839 8.84178 5.53985 8.62564 5.7049 8.52407C5.86995 8.4225 6.08605 8.47406 6.18761 8.63902C6.35215 8.90638 6.75028 9.49628 7.41873 10.1641C8.64638 8.8712 9.08436 7.55911 9.22144 7.01862H3.73363C3.53985 7.01862 3.38275 6.86157 3.38275 6.66774C3.38275 6.47392 3.53985 6.31686 3.73363 6.31686H7.11828V5.23102C7.11828 5.03719 7.27533 4.88014 7.46916 4.88014C7.66298 4.88014 7.82004 5.03719 7.82004 5.23102V6.31686H11.2047C11.3985 6.31686 11.5556 6.47392 11.5556 6.66774C11.5556 6.86157 11.3985 7.01862 11.2047 7.01862H9.94238C9.86958 7.36271 9.63931 8.22877 9.01321 9.24622C8.75197 9.67073 8.39997 10.1523 7.93349 10.6426C8.47178 11.1091 9.13714 11.5849 9.94158 11.9951V12.7759C8.91482 12.2943 8.08343 11.7061 7.42944 11.1325C6.63679 11.8453 5.58448 12.543 4.19482 13.0774ZM22.7369 19.3978C22.7369 20.1765 22.1034 20.81 21.3246 20.81H7.53077L8.78953 19.7775C9.96764 18.8112 10.6433 17.383 10.6433 15.8593V10.1286C10.6433 9.34985 11.2768 8.71635 12.0555 8.71635H21.3247C22.1034 8.71635 22.7369 9.34985 22.7369 10.1286V19.3978H22.7369Z" fill="#101010"/>
<path d="M17.0029 11.2639C16.9492 11.1316 16.8206 11.0451 16.6778 11.0451C16.535 11.0451 16.4065 11.1316 16.3528 11.2639L14.4909 15.8469C14.4905 15.8479 14.4901 15.8488 14.4898 15.8498L13.5921 18.0595C13.5191 18.239 13.6056 18.4437 13.7851 18.5166C13.9647 18.5896 14.1693 18.503 14.2422 18.3236L15.0499 16.3353H18.3057L19.1134 18.3236C19.1688 18.4599 19.3001 18.5425 19.4386 18.5425C19.4826 18.5425 19.5273 18.5342 19.5706 18.5166C19.7501 18.4436 19.8365 18.239 19.7635 18.0595L17.0029 11.2639ZM15.335 15.6336L16.6779 12.3282L18.0207 15.6336H15.335Z" fill="#101010"/>
</g>
<defs>
<clipPath id="clip0_455_451">
<rect width="24" height="24" fill="white"/>
</clipPath>
</defs>
</svg>
