<?xml version="1.0" encoding="utf-8"?>
<!-- Generator: Adobe Illustrator 27.3.1, SVG Export Plug-In . SVG Version: 6.00 Build 0)  -->
<svg version="1.1" id="Layer_1" xmlns="http://www.w3.org/2000/svg" xmlns:xlink="http://www.w3.org/1999/xlink" x="0px" y="0px"
	 viewBox="0 0 24 24" style="enable-background:new 0 0 24 24;" xml:space="preserve">
<style type="text/css">
	.st0{fill:none;stroke:#FFFFFF;stroke-width:1.5;stroke-linecap:round;stroke-linejoin:round;}
</style>
<path class="st0" d="M20.8,12H10.1 M3,8h2.5 M4,12h1.5 M4.5,16h1 M10,12.5l-0.9,3c-0.3,1.1-0.5,1.7-0.4,2C8.8,17.8,9.1,18,9.4,18
	c0.4,0.1,0.9-0.2,1.9-0.7l7.8-3.9c0.9-0.5,1.4-0.7,1.5-1c0.1-0.3,0.1-0.6,0-0.9c-0.1-0.3-0.6-0.5-1.5-1l-7.8-3.9
	c-1-0.5-1.6-0.8-1.9-0.7C9.1,6,8.8,6.2,8.7,6.5c-0.1,0.3,0,0.9,0.4,2l0.9,3c0.1,0.2,0.1,0.3,0.1,0.3c0,0.1,0,0.2,0,0.2
	C10,12.2,10,12.3,10,12.5z"/>
</svg>
