<svg width="24" height="24" viewBox="0 0 24 24" fill="none" xmlns="http://www.w3.org/2000/svg">
<g clip-path="url(#clip0_455_469)">
<path d="M12 0.923065C13.3846 0.923065 14.5062 2.44153 15.7339 2.96307C16.9616 3.4846 18.8816 3.19845 19.8139 4.18614C20.7462 5.17383 20.5108 6.98768 21.0369 8.26614C21.5631 9.5446 23.0769 10.6154 23.0769 12C23.0769 13.3846 21.5585 14.5061 21.0369 15.7338C20.5154 16.9615 20.8016 18.8815 19.8139 19.8138C18.8262 20.7461 17.0123 20.52 15.7339 21.0369C14.4554 21.5538 13.3846 23.0769 12 23.0769C10.6154 23.0769 9.49387 21.5585 8.26617 21.0369C7.03848 20.5154 5.11848 20.8015 4.18617 19.8138C3.25386 18.8261 3.48002 17.0123 2.9631 15.7338C2.44617 14.4554 0.923096 13.3846 0.923096 12C0.923096 10.6154 2.44156 9.49383 2.9631 8.26614C3.48463 7.03845 3.19848 5.11845 4.18617 4.18614C5.17386 3.25383 6.98771 3.47999 8.26617 2.96307C9.54463 2.44614 10.6154 0.923065 12 0.923065ZM12 4.42153C10.5011 4.42153 9.03592 4.866 7.78965 5.69873C6.54338 6.53146 5.57203 7.71505 4.99843 9.09984C4.42484 10.4846 4.27476 12.0084 4.56718 13.4785C4.85959 14.9486 5.58137 16.2989 6.64124 17.3588C7.7011 18.4186 9.05146 19.1404 10.5215 19.4328C11.9916 19.7252 13.5154 19.5752 14.9002 19.0016C16.285 18.428 17.4685 17.4566 18.3013 16.2104C19.134 14.9641 19.5785 13.4989 19.5785 12C19.5724 9.99193 18.772 8.06785 17.3521 6.64793C15.9322 5.22801 14.0081 4.42761 12 4.42153ZM15.5169 8.6446L16.26 9.34614C16.336 9.44642 16.3771 9.56879 16.3771 9.6946C16.3771 9.82042 16.336 9.94279 16.26 10.0431L11.5754 15.2631C11.4828 15.3681 11.3682 15.4515 11.2398 15.5073C11.1114 15.5631 10.9723 15.59 10.8323 15.5861C10.6931 15.5854 10.5554 15.5563 10.4277 15.5008C10.2999 15.4453 10.1848 15.3644 10.0892 15.2631L7.5554 12.7385C7.50899 12.6987 7.47094 12.6501 7.44346 12.5955C7.41598 12.5409 7.39962 12.4814 7.39532 12.4204C7.39103 12.3594 7.39889 12.2982 7.41845 12.2403C7.438 12.1824 7.46887 12.1289 7.50925 12.0831L7.5554 12.0323L8.30771 11.3354C8.39831 11.2379 8.52356 11.1799 8.65649 11.1739C8.78942 11.1678 8.91941 11.2142 9.01848 11.3031L9.05079 11.3354L10.8462 13.1815L14.8108 8.65845C14.9037 8.56493 15.0293 8.51119 15.1611 8.50861C15.2928 8.50602 15.4205 8.55479 15.5169 8.6446Z" fill="#101010"/>
</g>
<defs>
<clipPath id="clip0_455_469">
<rect width="24" height="24" fill="white"/>
</clipPath>
</defs>
</svg>
