<svg width="26" height="26" viewBox="0 0 26 26" fill="none" xmlns="http://www.w3.org/2000/svg">
<path d="M13.7574 0.32803C13.563 0.119044 13.2882 0 13 0C12.7118 0 12.437 0.119044 12.2426 0.32803L6.76887 6.21165C6.3864 6.62276 6.41547 7.26075 6.83379 7.63663C7.25213 8.01251 7.9013 7.98395 8.28377 7.57283L11.9737 3.60656V18.4914C11.9737 19.0484 12.4332 19.5 13 19.5C13.5668 19.5 14.0263 19.0484 14.0263 18.4914V3.60656L17.7163 7.57283C18.0987 7.98395 18.7479 8.01251 19.1662 7.63663C19.5846 7.26075 19.6136 6.62276 19.2311 6.21165L13.7574 0.32803Z" fill="#33A7FF"/>
<path d="M2 16.8594C2 16.2985 1.55229 15.8438 1 15.8438C0.447721 15.8438 6.98604e-07 16.2985 6.98604e-07 16.8594V16.9337C-2.59681e-05 18.7857 -5.27302e-05 20.2784 0.155361 21.4524C0.316721 22.6713 0.661907 23.6975 1.46447 24.5126C2.26703 25.3278 3.27752 25.6784 4.47767 25.8422C5.63363 26 7.10339 26 8.92684 26H17.0732C18.8967 26 20.3664 26 21.5224 25.8422C22.7225 25.6784 23.7329 25.3278 24.5356 24.5126C25.3381 23.6975 25.6833 22.6713 25.8447 21.4524C26 20.2784 26 18.7857 26 16.9337V16.8594C26 16.2985 25.5523 15.8438 25 15.8438C24.4477 15.8438 24 16.2985 24 16.8594C24 18.8031 23.9979 20.1588 23.8625 21.1817C23.7309 22.1754 23.4904 22.7015 23.1213 23.0764C22.7523 23.4512 22.2343 23.6955 21.2559 23.8291C20.2487 23.9666 18.9139 23.9688 17 23.9688H9C7.08612 23.9688 5.75129 23.9666 4.74416 23.8291C3.7658 23.6955 3.24769 23.4512 2.87868 23.0764C2.50967 22.7015 2.26907 22.1754 2.13753 21.1817C2.00212 20.1588 2 18.8031 2 16.8594Z" fill="#33A7FF"/>
</svg>
