<svg width="130" height="130" viewBox="0 0 130 130" fill="none" xmlns="http://www.w3.org/2000/svg">
<path d="M97.9583 27.375L92.5417 35.5L95.25 43.625L100.667 35.5H106.083V116.75H35.6667L14 95.0833V78.8333L22.125 70.7083H32.9583V62.5833L24.8333 65.2917L19.4167 59.875L14 62.5833V8.41667C14 6.98008 14.5707 5.60233 15.5865 4.5865C16.6023 3.57068 17.9801 3 19.4167 3H100.667C102.103 3 103.481 3.57068 104.497 4.5865C105.513 5.60233 106.083 6.98008 106.083 8.41667V16.5417L97.9583 21.9583V27.375Z" fill="url(#paint0_linear_371_883)"/>
<path d="M35.6667 100.5V116.75L14 95.0833H30.25C31.6866 95.0833 33.0643 95.6539 34.0802 96.6698C35.096 97.6856 35.6667 99.0633 35.6667 100.5Z" fill="white"/>
<path d="M97.9583 127.583C108.429 127.583 116.917 119.095 116.917 108.625C116.917 98.1547 108.429 89.6667 97.9583 89.6667C87.4879 89.6667 79 98.1547 79 108.625C79 119.095 87.4879 127.583 97.9583 127.583Z" fill="url(#paint1_linear_371_883)"/>
<path d="M101.696 108.625L105.298 105.023C105.802 104.515 106.085 103.829 106.085 103.114C106.085 102.398 105.802 101.712 105.298 101.204C105.046 100.95 104.747 100.749 104.417 100.611C104.087 100.474 103.733 100.403 103.375 100.403C103.017 100.403 102.663 100.474 102.333 100.611C102.003 100.749 101.704 100.95 101.452 101.204L97.9583 104.698L94.3562 101.096C94.1135 100.812 93.8147 100.582 93.4787 100.42C93.1427 100.257 92.7767 100.166 92.4037 100.151C92.0307 100.137 91.6588 100.2 91.3112 100.336C90.9637 100.472 90.648 100.678 90.3841 100.942C90.1201 101.206 89.9136 101.522 89.7774 101.87C89.6413 102.217 89.5784 102.589 89.5928 102.962C89.6072 103.335 89.6986 103.701 89.8612 104.037C90.0237 104.373 90.254 104.672 90.5375 104.915L94.0312 108.625L90.4292 112.227C90.1753 112.479 89.9738 112.778 89.8363 113.108C89.6988 113.438 89.628 113.792 89.628 114.15C89.628 114.508 89.6988 114.862 89.8363 115.192C89.9738 115.522 90.1753 115.821 90.4292 116.073C90.9366 116.577 91.623 116.861 92.3385 116.861C93.054 116.861 93.7405 116.577 94.2479 116.073L97.9583 112.363L101.56 115.965C101.813 116.217 102.113 116.417 102.443 116.554C102.773 116.691 103.126 116.761 103.483 116.761C103.84 116.761 104.194 116.691 104.524 116.554C104.854 116.417 105.154 116.217 105.406 115.965C105.659 115.712 105.859 115.412 105.996 115.082C106.132 114.752 106.203 114.399 106.203 114.042C106.203 113.685 106.132 113.331 105.996 113.001C105.859 112.671 105.659 112.371 105.406 112.119L101.696 108.625Z" fill="#F0F7FC"/>
<path d="M74.7962 43.3563C65.4604 39.6192 55.0444 39.6192 45.7087 43.3563C45.3779 43.4878 45.0763 43.6833 44.8211 43.9315C44.5659 44.1796 44.362 44.4756 44.2212 44.8026C44.0803 45.1295 44.0053 45.481 44.0003 45.8369C43.9953 46.1929 44.0604 46.5463 44.192 46.8771C44.4578 47.5451 44.978 48.0802 45.6383 48.3646C45.9653 48.5054 46.3167 48.5805 46.6727 48.5855C47.0286 48.5905 47.3821 48.5253 47.7129 48.3938C55.7567 45.1439 64.7481 45.1439 72.792 48.3938C73.1228 48.5257 73.4763 48.5911 73.8323 48.5862C74.1883 48.5814 74.5399 48.5064 74.8669 48.3655C75.194 48.2247 75.49 48.0207 75.7381 47.7653C75.9862 47.5099 76.1815 47.2081 76.3129 46.8771C76.4448 46.5464 76.5102 46.1929 76.5054 45.8368C76.5005 45.4808 76.4255 45.1292 76.2846 44.8022C76.1438 44.4751 75.9398 44.1791 75.6844 43.931C75.429 43.6829 75.1272 43.4876 74.7962 43.3563Z" fill="white"/>
<circle cx="51" cy="30" r="4" fill="white"/>
<circle cx="69" cy="30" r="4" fill="white"/>
<defs>
<linearGradient id="paint0_linear_371_883" x1="60.0417" y1="116.75" x2="60.0417" y2="3" gradientUnits="userSpaceOnUse">
<stop stop-color="#8D8F94"/>
<stop offset="1" stop-color="#C1C5CD"/>
</linearGradient>
<linearGradient id="paint1_linear_371_883" x1="97.9583" y1="127.583" x2="97.9583" y2="89.6667" gradientUnits="userSpaceOnUse">
<stop stop-color="#10A681"/>
<stop offset="1" stop-color="#11D2A3"/>
</linearGradient>
</defs>
</svg>
