<svg width="221" height="170" viewBox="0 0 221 170" fill="none" xmlns="http://www.w3.org/2000/svg">
<mask id="mask0_962_295" style="mask-type:alpha" maskUnits="userSpaceOnUse" x="0" y="0" width="221" height="170">
<rect width="221" height="170" rx="12" fill="#EBF3FF"/>
</mask>
<g mask="url(#mask0_962_295)">
<path d="M121.562 104.872C123.887 99.9292 127.317 95.6058 130.511 91.169C133.701 86.7322 136.73 82.0307 138.062 76.7339C138.742 74.0359 138.998 71.1489 140.217 68.6919C140.5 68.1249 141.294 68.0304 141.667 68.5407C142.584 69.7881 143.052 71.371 143.17 72.935C143.316 74.9148 142.962 76.8899 142.608 78.8413C141.417 85.395 140.226 91.9486 139.04 98.4975C138.019 104.111 136.999 109.729 135.591 115.257C133.724 122.586 131.187 129.721 128.669 136.851C128.541 137.215 128.291 137.541 127.941 137.711C127.024 138.164 126.33 137.309 125.886 136.563C120.126 126.829 116.483 115.668 121.562 104.872Z" fill="#FFAA67"/>
<path d="M122.786 62.8895C122.55 62.0532 122.29 61.1932 122.417 60.338C122.545 59.4828 123.192 58.6275 124.057 58.5897C124.633 58.5614 125.182 58.9016 125.545 59.3505C125.909 59.7993 126.122 60.3474 126.32 60.8908C127.988 65.3985 129.198 70.0763 129.93 74.825C130.393 77.8254 130.63 81.0479 129.24 83.7459C128.843 84.5114 128.31 85.2343 127.568 85.6737C126.826 86.1132 125.857 86.2313 125.101 85.8155C124.35 85.4044 123.929 84.5445 123.825 83.6939C123.698 82.6072 124.014 81.5582 124.161 80.4904C124.355 79.0681 124.43 77.6222 124.463 76.1906C124.53 73.3413 124.322 70.4827 123.854 67.6713C123.589 66.0553 123.23 64.463 122.786 62.8895Z" fill="#FFAA67"/>
<path d="M113.643 51.1525C113.558 50.6564 113.468 50.1414 113.576 49.65C113.685 49.1585 114.049 48.6813 114.55 48.6104C115.126 48.5254 115.637 48.9837 116.005 49.4326C118.292 52.2204 118.897 55.9768 119.421 59.5395C119.87 62.6013 120.314 65.7577 119.558 68.7581C119.28 69.8732 118.698 71.0734 117.593 71.3852C116.629 71.6545 115.603 71.1301 114.914 70.4071C113.165 68.5785 113.52 66.4239 114.134 64.2362C114.833 61.7603 114.446 58.637 114.252 56.0997C114.125 54.4459 113.921 52.7921 113.643 51.1525Z" fill="#FFAA67"/>
<path d="M118.901 118.263L75.5727 75.9874C73.5125 73.9746 73.47 70.6717 75.4829 68.6116L95.0304 48.5727C97.0433 46.5125 100.346 46.47 102.406 48.4829L145.735 90.758C147.795 92.7708 147.838 96.0737 145.825 98.1338L126.277 118.173C124.264 120.233 120.962 120.275 118.901 118.263Z" fill="white"/>
<path d="M138.288 91.9865L120.102 110.627C117.994 112.786 114.531 112.829 112.371 110.721L80.5056 79.6541C78.3462 77.5467 78.3037 74.0833 80.4111 71.9239L98.5978 53.2836C100.705 51.1242 104.169 51.0817 106.328 53.1891L138.194 84.2563C140.358 86.3637 140.4 89.8224 138.288 91.9865Z" fill="url(#paint0_linear_962_295)"/>
<path d="M134.73 102.438C135.983 103.662 136.006 105.665 134.787 106.918C133.563 108.17 131.56 108.193 130.308 106.974C129.056 105.751 129.032 103.747 130.251 102.495C131.47 101.238 133.478 101.214 134.73 102.438Z" fill="#E3E3E3"/>
<path d="M93.5798 56.8132L83.7139 66.9248C83.2555 67.3973 82.4995 67.4067 82.0318 66.9437C81.5592 66.4854 81.5498 65.7293 82.0129 65.2616L91.8788 55.1499C92.3371 54.6774 93.0931 54.668 93.5609 55.131C94.0287 55.5894 94.0381 56.3407 93.5798 56.8132Z" fill="#CCCCCC"/>
<path d="M107.514 87.8379C105.983 86.4251 104.475 84.9934 102.959 83.5711C102.902 83.5144 102.874 83.5192 102.817 83.5759C101.896 84.5634 100.974 85.5462 100.053 86.529C99.1456 87.4977 98.2384 88.4616 97.3359 89.4302C97.317 89.4491 97.2981 89.4727 97.2792 89.4916C97.2272 89.5342 97.2366 89.5672 97.2839 89.6003C97.3501 89.6523 97.4162 89.709 97.4824 89.761C97.6052 89.8555 97.7233 89.9547 97.8415 90.0539C98.0399 90.2193 98.2431 90.3752 98.4463 90.5406C98.5644 90.6351 98.6778 90.7296 98.7959 90.8241C98.9944 90.9848 99.1975 91.1407 99.396 91.3013C99.5189 91.4006 99.637 91.4998 99.7551 91.5943C99.9536 91.755 100.157 91.9109 100.355 92.0715C100.473 92.166 100.591 92.2653 100.71 92.3598C100.903 92.5157 101.102 92.6716 101.295 92.8275C101.418 92.9268 101.541 93.0307 101.669 93.1299C101.867 93.2906 102.07 93.4465 102.269 93.6072C102.392 93.7064 102.515 93.8056 102.637 93.9048C102.826 94.056 103.02 94.2073 103.209 94.3585C103.337 94.4624 103.46 94.5664 103.587 94.6656C103.786 94.8262 103.989 94.9822 104.187 95.1428C104.31 95.242 104.428 95.3413 104.546 95.4358C104.726 95.5822 104.915 95.724 105.094 95.8658C105.231 95.9744 105.359 96.0878 105.496 96.1965C105.732 96.3855 105.973 96.5745 106.214 96.7635C106.365 96.8864 106.521 97.0092 106.673 97.1321C106.739 97.1888 106.767 97.1651 106.814 97.1179C108.449 95.3743 110.084 93.6308 111.719 91.8872C111.79 91.8116 111.79 91.8117 111.714 91.7455C110.306 90.4508 108.917 89.1373 107.514 87.8379Z" fill="#29A5F6"/>
<path d="M116.009 68.0115C115.433 67.6808 114.833 67.8556 114.483 68.1958C114.289 68.3848 114.105 68.588 113.916 68.7864C113.307 69.4338 112.697 70.0858 112.083 70.7332C112.064 70.7521 112.04 70.7662 112.04 70.7946C111.095 71.801 110.145 72.8122 109.2 73.8186C108.893 74.1446 108.586 74.4754 108.279 74.8014C108.241 74.8345 108.218 74.8392 108.18 74.7825C108.019 74.5368 107.854 74.3006 107.688 74.0596C107.258 73.4406 106.819 72.8216 106.356 72.2215C106.101 71.8908 105.841 71.5695 105.567 71.2576C105.406 71.0734 105.236 70.8985 105.071 70.719C104.924 70.5583 104.768 70.4119 104.589 70.289C104.282 70.0811 103.956 69.8968 103.625 69.7315C102.756 69.3015 101.858 68.9565 100.936 68.6589C100.903 68.6494 100.87 68.6494 100.837 68.6589C100.658 68.7014 100.487 68.7628 100.332 68.8573C100.133 68.9802 99.9441 69.1172 99.8118 69.3156C99.5755 69.585 99.448 69.9015 99.4007 70.2559C99.3913 70.3174 99.4054 70.3551 99.4527 70.3977C100.421 71.3002 101.385 72.2074 102.354 73.1146C102.392 73.1524 102.42 73.1902 102.439 73.2422C102.628 73.7761 102.812 74.31 102.987 74.8487C103.653 76.8994 104.178 78.9831 104.49 81.1188C104.494 81.1613 104.494 81.2039 104.49 81.2511C104.447 81.5535 104.405 81.8559 104.357 82.1583C104.353 82.1678 104.348 82.1725 104.348 82.1772C104.301 82.4891 104.249 82.8009 104.197 83.1175C104.192 83.1601 104.211 83.1789 104.234 83.2026C106.536 85.3572 108.837 87.5166 111.133 89.6712C111.18 89.7137 111.204 89.709 111.242 89.6665C111.487 89.4019 111.733 89.142 111.979 88.8821C112.017 88.8727 112.059 88.8632 112.097 88.849C112.56 88.7167 113.023 88.5844 113.481 88.4332C113.618 88.386 113.727 88.3151 113.831 88.2111C114.133 87.9087 114.426 87.5969 114.724 87.285C116.449 85.4659 118.164 83.6326 119.879 81.7992C120.026 81.648 120.172 81.5016 120.314 81.3504C120.815 80.8164 121.316 80.2825 121.821 79.7486C121.906 79.6588 121.968 79.5548 122.01 79.4414C122.114 79.1674 122.157 78.8792 122.171 78.5862C122.19 78.1751 122.152 77.7735 121.982 77.3908C121.887 77.1781 121.746 76.9939 121.552 76.8568C121.282 76.6678 120.975 76.6111 120.654 76.6537C120.451 76.682 120.257 76.5072 120.224 76.3324C120.215 76.2898 120.219 76.2473 120.243 76.2048C120.295 76.115 120.333 76.0205 120.356 75.9165C120.47 75.4346 120.408 74.9715 120.215 74.5226C119.955 73.9273 119.454 73.6296 118.844 73.691C118.58 73.7194 118.377 73.4642 118.466 73.2138C118.551 72.9728 118.603 72.7271 118.608 72.4767C118.627 71.8246 118.4 71.2907 117.819 70.9505C117.545 70.7899 117.243 70.7001 116.916 70.7237C116.709 70.7379 116.524 70.4969 116.614 70.3268C116.718 70.1331 116.77 69.9252 116.798 69.7125C116.907 69.0274 116.586 68.3423 116.009 68.0115Z" fill="#29A5F6"/>
<path d="M110.051 146.027C110.307 140.971 110.552 135.816 109.234 130.926C107.42 124.197 102.789 118.522 100.738 111.865C97.7238 102.084 101.046 90.6493 108.842 84.0106C109.418 83.5192 110.08 83.0325 110.831 83.0467C111.738 83.0656 112.499 83.8547 112.726 84.7335C112.953 85.6124 112.745 86.5479 112.423 87.3984C110.902 91.41 106.796 94.6561 107.212 98.9229C107.42 101.068 108.799 102.939 110.429 104.352C112.055 105.765 113.954 106.828 115.674 108.132C120.725 111.973 123.986 117.795 125.838 123.862C127.695 129.929 128.267 136.307 128.824 142.625C129.438 149.542 130.053 156.46 130.667 163.382C131.007 167.224 131.097 171.788 129.519 175.313C127.567 179.669 122.866 181.961 118.127 181.436C115.344 181.129 112.749 179.679 110.897 177.6C108.558 174.977 108.421 173.579 108.624 170.342C109.116 162.423 109.65 153.956 110.051 146.027Z" fill="#FFAA67"/>
<path d="M26.5598 45.1464C25.5108 44.9526 24.6225 45.9685 24.9863 46.975C25.5911 48.6382 26.8858 50.0888 28.4025 51.0621C30.5477 52.4371 33.0803 53.0325 35.5657 53.6042C37.7487 54.1098 40.2766 54.5587 41.8831 52.6119C42.7903 51.5157 42.8518 49.9848 42.1477 48.7516C41.2736 47.2159 39.9837 46.9183 38.3771 46.8852C34.479 46.8049 30.4579 45.8693 26.5598 45.1464Z" fill="#29A5F6"/>
<path d="M19.6048 54.5492C18.8299 54.828 17.9416 55.3619 18.003 56.1793C18.055 56.9117 18.8394 57.3323 19.515 57.6158C21.7216 58.5419 23.9235 59.4633 26.1301 60.3894C27.6894 61.0414 29.2864 61.7029 30.9733 61.788C32.6601 61.873 34.484 61.2588 35.4054 59.846C37.7018 56.3164 32.9436 54.6673 30.4394 54.0389C26.8767 53.1506 23.0541 53.3065 19.6048 54.5492Z" fill="#29A5F6"/>
<path d="M22.1946 66.6358C20.2526 67.6139 18.8871 69.348 20.555 70.7419C22.7947 72.6083 28.2521 70.9215 30.7989 72.339C32.7787 73.4399 33.3363 75.9867 33.6907 78.2217C34.6546 84.3312 35.6185 90.4454 36.5824 96.5549C37.8345 104.493 39.0914 112.535 38.3448 120.539C37.1919 132.886 31.3707 144.245 25.5116 155.174C22.634 160.537 19.6573 166.089 19.2036 172.161C18.75 178.232 21.5614 184.999 27.2457 187.172C31.6164 188.84 36.7383 187.399 40.3672 184.446C44.0007 181.497 46.3491 177.249 48.0879 172.907C50.337 167.298 51.712 161.378 53.0776 155.491C60.0848 125.264 67.1252 93.9561 61.2566 63.489C60.803 61.1359 60.2502 58.7403 58.9366 56.7321C57.6231 54.7287 55.3976 53.1647 53.002 53.2734C49.2219 53.4482 46.9067 57.3133 44.908 60.5264C42.8195 63.8859 39.0442 67.4249 34.8058 66.1917C30.9312 65.0671 26.9149 64.2544 22.1946 66.6358Z" fill="#29A5F6"/>
<path d="M24.6938 72.2209L39.5021 24.0253C40.1967 21.762 42.5923 20.4957 44.8556 21.1903L67.1956 28.0558C69.459 28.7504 70.7253 31.146 70.0307 33.4093L55.2224 81.6049C54.5278 83.8682 52.1322 85.1345 49.8689 84.4399L27.5288 77.5744C25.2702 76.8798 23.9992 74.4842 24.6938 72.2209Z" fill="white"/>
<path d="M52.3214 75.5804L30.4539 68.8614C28.3796 68.2235 27.2172 66.0264 27.8504 63.9521L38.7558 28.6464C39.3937 26.5721 41.5908 25.4098 43.6651 26.0429L65.5327 32.762C67.607 33.3998 68.7694 35.597 68.1362 37.6713L57.2308 72.9769C56.5976 75.0512 54.3957 76.2183 52.3214 75.5804Z" fill="url(#paint1_linear_962_295)"/>
<path d="M42.4267 77.8579C42.0014 79.247 40.5272 80.0314 39.1333 79.6014C37.7442 79.1762 36.9598 77.7019 37.3898 76.3081C37.815 74.9189 39.2893 74.1345 40.6832 74.5645C42.0723 74.9945 42.852 76.464 42.4267 77.8579Z" fill="#E3E3E3"/>
<path d="M60.5048 30.1017L49.2828 26.6525C48.7583 26.4918 48.4654 25.939 48.626 25.4145C48.7867 24.89 49.3395 24.5971 49.864 24.7577L61.086 28.207C61.6105 28.3677 61.9034 28.9205 61.7428 29.445C61.5821 29.9647 61.0293 30.2624 60.5048 30.1017Z" fill="#CCCCCC"/>
<path d="M56.6176 53.6372C60.4741 49.7807 60.4741 43.528 56.6176 39.6715C52.761 35.8149 46.5083 35.815 42.6518 39.6715C38.7953 43.528 38.7953 49.7807 42.6518 53.6372C46.5083 57.4938 52.761 57.4938 56.6176 53.6372Z" fill="#49C9EC"/>
<path d="M51.8957 54.2515L48.5693 50.6226L43.6978 51.3077L46.117 47.0221L43.9624 42.5995L48.7819 43.5823L52.321 40.1613L52.8833 45.0518L57.2256 47.3623L52.751 49.4035L51.8957 54.2515Z" fill="white"/>
<path d="M52.9828 74.7063C51.381 71.3846 49.1036 68.4409 46.8497 65.5208C44.7754 62.8417 42.7058 60.1626 40.6315 57.4834C40.1732 56.8881 39.6534 56.2549 38.9163 56.0896C37.9524 55.8722 37.0074 56.5621 36.4309 57.3606C34.6969 59.7751 35.141 63.1582 36.3412 65.8799C37.5461 68.6015 39.4077 71.0018 40.4661 73.7802C42.4129 78.8879 41.4253 84.5675 40.8347 89.9966C40.2441 95.4256 40.2393 101.436 43.6508 105.703C45.2621 107.72 47.8892 109.228 50.384 108.561C51.9811 108.131 53.2616 106.87 54.0365 105.41C54.8114 103.95 55.1469 102.296 55.3784 100.656C56.0588 95.8651 55.7139 91.2676 55.1611 86.4953C54.6791 82.2994 54.887 78.6564 52.9828 74.7063Z" fill="#29A5F6"/>
<path d="M180.984 85.501C182.429 85.3262 183.899 85.0427 185.335 85.2836C186.772 85.5246 188.218 86.4366 188.577 87.8493C188.804 88.7424 188.577 89.6779 188.581 90.5993C188.586 91.5207 188.959 92.5791 189.843 92.8437C190.49 93.0422 191.204 92.7209 191.653 92.2106C192.097 91.705 192.324 91.0435 192.499 90.3914C193.056 88.3219 193.231 86.1011 192.64 84.041C192.054 81.9808 190.632 80.1003 188.657 79.2686C186.734 78.4607 184.556 78.7064 182.486 78.9662C180.492 79.2167 175.224 79.623 174.822 82.2832C174.345 85.4207 179.013 85.742 180.984 85.501Z" fill="#F60A53"/>
<path d="M182.175 81.376C186.9 81.891 191.398 84.2677 194.488 87.8777C194.927 88.3927 195.353 88.9408 195.924 89.2999C196.496 89.659 197.271 89.7913 197.843 89.4322C198.381 89.092 198.608 88.3927 198.556 87.7548C198.504 87.1169 198.226 86.5263 197.952 85.9451C196.77 83.455 195.565 80.9366 193.822 78.8009C192.078 76.6651 189.706 74.9168 186.985 74.4774C185.057 74.1656 183.086 74.5152 181.168 74.8696C179.538 75.1673 174.194 76.0083 174.808 78.6024C175.446 81.3335 180.124 81.1539 182.175 81.376Z" fill="#F60A53"/>
<path d="M195.57 79.349C196.345 79.6041 197.125 79.9065 197.942 79.9254C198.759 79.9443 199.643 79.6136 200.026 78.8906C200.442 78.111 200.158 77.1471 199.752 76.3627C198.315 73.608 195.419 71.7841 192.362 71.203C189.309 70.6218 186.125 71.1699 183.219 72.2756C180.313 73.3765 177.643 75.0113 175.007 76.6651C173.428 77.6527 171.709 78.8812 171.444 80.7239C171.331 81.4988 171.524 82.3305 172.035 82.9211C173.391 84.4851 174.596 83.2802 175.829 82.4013C177.194 81.4327 178.673 80.6294 180.218 79.9963C183.29 78.7394 186.64 78.1582 189.957 78.3236C191.866 78.4134 193.76 78.7536 195.57 79.349Z" fill="#F60A53"/>
<path d="M157.34 72.7669C156.47 79.4765 157.727 86.257 158.979 92.9051C164.394 121.681 169.809 150.461 175.224 179.237C175.895 182.813 176.599 186.466 178.437 189.608C181.036 194.05 186.04 197.107 191.181 196.937C196.321 196.767 201.287 193.124 202.582 188.143C203.702 183.844 202.185 179.345 200.687 175.164C197.985 167.613 195.282 160.058 192.574 152.507C189.583 144.153 185.388 128.518 183.942 119.767C182.746 112.538 186.2 110.071 186.092 102.747C185.936 92.3476 183.413 84.2866 183.257 73.8915C183.2 70.1162 183.134 66.2794 182.038 62.6648C180.941 59.0501 178.654 55.6197 175.233 54.0226C164.399 48.9479 158.398 64.5926 157.34 72.7669Z" fill="#F60A53"/>
<path d="M166.643 82.7699L149.642 35.9021C148.782 33.5301 150.006 30.9124 152.378 30.0525L173.816 22.275C176.188 21.4151 178.805 22.6389 179.665 25.0108L196.666 71.8787C197.526 74.2506 196.302 76.8683 193.93 77.7283L172.493 85.5057C170.121 86.3657 167.503 85.1419 166.643 82.7699Z" fill="white"/>
<path d="M190.301 70.6974L170.999 77.6999C168.353 78.6591 165.428 77.2936 164.464 74.6475L152.269 40.991C151.31 38.3449 152.675 35.4201 155.321 34.4562L174.623 27.4537C177.269 26.4945 180.194 27.86 181.158 30.5061L193.353 64.1626C194.317 66.8134 192.947 69.7382 190.301 70.6974Z" fill="url(#paint2_linear_962_295)"/>
<path d="M184.287 76.8589C184.783 78.2245 184.074 79.7365 182.708 80.2326C181.343 80.7287 179.831 80.02 179.335 78.6544C178.839 77.2889 179.547 75.7769 180.913 75.2807C182.278 74.7846 183.79 75.4934 184.287 76.8589Z" fill="#E3E3E3"/>
<path d="M169.97 27.8459L158.932 31.848C158.417 32.0323 157.85 31.7677 157.666 31.2573C157.481 30.7423 157.746 30.1753 158.256 29.991L169.294 25.9889C169.809 25.8046 170.376 26.0692 170.56 26.5795C170.749 27.0899 170.485 27.6569 169.97 27.8459Z" fill="#CCCCCC"/>
<path d="M181.201 48.0786L173.39 60.5574L160.912 52.7469C158.625 50.3986 157.977 46.9634 159.258 44.1946C160.793 40.8587 165.23 40.6791 169.095 41.884C171.708 39.2333 175.474 37.2204 178.437 39.2711C181.206 41.18 182.368 44.8088 181.201 48.0786Z" fill="#EC5642"/>
<path d="M168.131 85.6097C171.066 76.788 173.995 67.9664 176.929 59.1447C177.208 58.3083 177.496 57.4578 178.054 56.7774C178.612 56.1017 179.514 55.6292 180.369 55.8277C181.584 56.1112 182.136 57.4956 182.396 58.7147C183.54 64.0871 182.633 69.6485 182.406 75.1343C182.146 81.4091 182.798 87.7265 184.329 93.8171C184.976 96.3828 185.779 98.9249 186.087 101.552C186.394 104.179 186.162 106.962 184.853 109.259C183.544 111.56 180.993 113.261 178.356 113.039C175.725 112.817 173.584 110.823 172.048 108.677C169.516 105.153 168.5 101.169 167.432 97.0349C166.393 93.0233 166.837 89.5079 168.131 85.6097Z" fill="#F60A53"/>
</g>
<defs>
<linearGradient id="paint0_linear_962_295" x1="109.351" y1="112.275" x2="109.351" y2="51.6359" gradientUnits="userSpaceOnUse">
<stop stop-color="#D3E6F5"/>
<stop offset="1" stop-color="#F0F7FC"/>
</linearGradient>
<linearGradient id="paint1_linear_962_295" x1="47.9933" y1="75.7548" x2="47.9933" y2="25.8703" gradientUnits="userSpaceOnUse">
<stop stop-color="#D3E6F5"/>
<stop offset="1" stop-color="#F0F7FC"/>
</linearGradient>
<linearGradient id="paint2_linear_962_295" x1="172.812" y1="78.0066" x2="172.812" y2="27.147" gradientUnits="userSpaceOnUse">
<stop stop-color="#D3E6F5"/>
<stop offset="1" stop-color="#F0F7FC"/>
</linearGradient>
</defs>
</svg>
